<mxfile host="65bd71144e">
    <diagram id="eq-va9jUGTlsY4EYPArv" name="Page-1">
        <mxGraphModel dx="1207" dy="792" grid="1" gridSize="10" guides="1" tooltips="1" connect="1" arrows="1" fold="1" page="1" pageScale="1" pageWidth="850" pageHeight="1100" math="0" shadow="0">
            <root>
                <mxCell id="0"/>
                <mxCell id="1" parent="0"/>
                <mxCell id="6" value="User" style="shape=umlActor;verticalLabelPosition=bottom;verticalAlign=top;html=1;outlineConnect=0;" parent="1" vertex="1">
                    <mxGeometry x="30" y="190" width="50" height="80" as="geometry"/>
                </mxCell>
                <mxCell id="9" value="" style="endArrow=classic;html=1;entryX=0;entryY=0.5;entryDx=0;entryDy=0;" parent="1" target="14" edge="1">
                    <mxGeometry width="50" height="50" relative="1" as="geometry">
                        <mxPoint x="90" y="239.5" as="sourcePoint"/>
                        <mxPoint x="180" y="239.5" as="targetPoint"/>
                    </mxGeometry>
                </mxCell>
                <mxCell id="57" style="edgeStyle=none;html=1;exitX=1;exitY=0.5;exitDx=0;exitDy=0;" parent="1" source="10" edge="1">
                    <mxGeometry relative="1" as="geometry">
                        <mxPoint x="500" y="69.86206896551721" as="targetPoint"/>
                    </mxGeometry>
                </mxCell>
                <mxCell id="10" value="postgres" style="shape=datastore;whiteSpace=wrap;html=1;" parent="1" vertex="1">
                    <mxGeometry x="390" y="30" width="70" height="80" as="geometry"/>
                </mxCell>
                <mxCell id="45" style="edgeStyle=none;html=1;entryX=0.5;entryY=1;entryDx=0;entryDy=0;exitX=1;exitY=0.5;exitDx=0;exitDy=0;" parent="1" source="14" target="10" edge="1">
                    <mxGeometry relative="1" as="geometry">
                        <Array as="points">
                            <mxPoint x="425" y="240"/>
                        </Array>
                    </mxGeometry>
                </mxCell>
                <mxCell id="49" style="edgeStyle=none;html=1;entryX=0;entryY=0.5;entryDx=0;entryDy=0;" parent="1" source="14" target="48" edge="1">
                    <mxGeometry relative="1" as="geometry"/>
                </mxCell>
                <mxCell id="14" value="/api/contacts/send" style="shape=manualInput;whiteSpace=wrap;html=1;" parent="1" vertex="1">
                    <mxGeometry x="210" y="200" width="130" height="80" as="geometry"/>
                </mxCell>
                <mxCell id="40" value="contacts" style="swimlane;childLayout=stackLayout;resizeParent=1;resizeParentMax=0;startSize=20;html=1;" parent="1" vertex="1">
                    <mxGeometry x="501" y="30" width="525" height="75" as="geometry">
                        <mxRectangle x="500" y="35" width="90" height="30" as="alternateBounds"/>
                    </mxGeometry>
                </mxCell>
                <mxCell id="41" value="id" style="swimlane;startSize=20;html=1;" parent="40" vertex="1">
                    <mxGeometry y="20" width="50" height="55" as="geometry">
                        <mxRectangle y="20" width="40" height="50" as="alternateBounds"/>
                    </mxGeometry>
                </mxCell>
                <mxCell id="65" value="1" style="text;html=1;align=center;verticalAlign=middle;resizable=0;points=[];autosize=1;strokeColor=none;fillColor=none;" parent="41" vertex="1">
                    <mxGeometry x="15" y="20" width="30" height="30" as="geometry"/>
                </mxCell>
                <mxCell id="42" value="date" style="swimlane;startSize=20;html=1;" parent="40" vertex="1">
                    <mxGeometry x="50" y="20" width="75" height="55" as="geometry"/>
                </mxCell>
                <mxCell id="66" value="31/05/2023" style="text;html=1;align=center;verticalAlign=middle;resizable=0;points=[];autosize=1;strokeColor=none;fillColor=none;" parent="42" vertex="1">
                    <mxGeometry x="-5" y="20" width="80" height="30" as="geometry"/>
                </mxCell>
                <mxCell id="43" value="hour" style="swimlane;startSize=20;html=1;" parent="40" vertex="1">
                    <mxGeometry x="125" y="20" width="60" height="55" as="geometry"/>
                </mxCell>
                <mxCell id="67" value="15:00" style="text;html=1;align=center;verticalAlign=middle;resizable=0;points=[];autosize=1;strokeColor=none;fillColor=none;" parent="43" vertex="1">
                    <mxGeometry x="10" y="20" width="50" height="30" as="geometry"/>
                </mxCell>
                <mxCell id="61" value="email" style="swimlane;startSize=20;html=1;" parent="40" vertex="1">
                    <mxGeometry x="185" y="20" width="105" height="55" as="geometry"/>
                </mxCell>
                <mxCell id="68" value="user@gmail.com" style="text;html=1;align=center;verticalAlign=middle;resizable=0;points=[];autosize=1;strokeColor=none;fillColor=none;" parent="61" vertex="1">
                    <mxGeometry y="20" width="110" height="30" as="geometry"/>
                </mxCell>
                <mxCell id="62" value="Telephone" style="swimlane;startSize=20;html=1;" parent="40" vertex="1">
                    <mxGeometry x="290" y="20" width="95" height="55" as="geometry"/>
                </mxCell>
                <mxCell id="69" value="12991708065" style="text;html=1;align=center;verticalAlign=middle;resizable=0;points=[];autosize=1;strokeColor=none;fillColor=none;" parent="62" vertex="1">
                    <mxGeometry x="-5" y="20" width="100" height="30" as="geometry"/>
                </mxCell>
                <mxCell id="63" value="message" style="swimlane;startSize=20;html=1;" parent="40" vertex="1">
                    <mxGeometry x="385" y="20" width="140" height="55" as="geometry"/>
                </mxCell>
                <mxCell id="70" value="hello, &lt;br&gt;can you contact me ?" style="text;html=1;align=left;verticalAlign=middle;resizable=0;points=[];autosize=1;strokeColor=none;fillColor=none;" parent="63" vertex="1">
                    <mxGeometry x="10" y="15" width="140" height="40" as="geometry"/>
                </mxCell>
                <mxCell id="54" style="edgeStyle=none;html=1;entryX=0;entryY=0.5;entryDx=0;entryDy=0;" parent="1" source="48" target="53" edge="1">
                    <mxGeometry relative="1" as="geometry">
                        <mxPoint x="770" y="240" as="targetPoint"/>
                    </mxGeometry>
                </mxCell>
                <mxCell id="56" value="send mail" style="edgeLabel;html=1;align=center;verticalAlign=middle;resizable=0;points=[];" parent="54" vertex="1" connectable="0">
                    <mxGeometry x="-0.5294" y="1" relative="1" as="geometry">
                        <mxPoint x="31" y="-9" as="offset"/>
                    </mxGeometry>
                </mxCell>
                <mxCell id="48" value="SMTP - Integration" style="label;whiteSpace=wrap;html=1;image=img/clipart/Gear_128x128.png" parent="1" vertex="1">
                    <mxGeometry x="510" y="215" width="170" height="50" as="geometry"/>
                </mxCell>
                <mxCell id="52" value="Admin" style="shape=actor;whiteSpace=wrap;html=1;labelPosition=center;verticalLabelPosition=bottom;align=center;verticalAlign=top;" parent="1" vertex="1">
                    <mxGeometry x="940" y="200" width="50" height="70" as="geometry"/>
                </mxCell>
                <mxCell id="55" style="edgeStyle=none;html=1;" parent="1" source="53" edge="1">
                    <mxGeometry relative="1" as="geometry">
                        <mxPoint x="930" y="240" as="targetPoint"/>
                    </mxGeometry>
                </mxCell>
                <mxCell id="53" value="" style="shape=message;html=1;html=1;outlineConnect=0;labelPosition=center;verticalLabelPosition=bottom;align=center;verticalAlign=top;" parent="1" vertex="1">
                    <mxGeometry x="810" y="220" width="60" height="40" as="geometry"/>
                </mxCell>
            </root>
        </mxGraphModel>
    </diagram>
</mxfile>